<?xml version="1.0" encoding="UTF-8" standalone="no"?>
<svg width="160px" height="160px" viewBox="0 0 160 160" version="1.1" xmlns="http://www.w3.org/2000/svg" xmlns:xlink="http://www.w3.org/1999/xlink">
    <!-- Generator: Sketch 3.8.3 (29802) - http://www.bohemiancoding.com/sketch -->
    <title>man</title>
    <desc>Created with Sketch.</desc>
    <defs></defs>
    <g id="Page-1" stroke="none" stroke-width="1" fill="none" fill-rule="evenodd">
        <g id="iPad-Landscape" transform="translate(-620.000000, -420.000000)">
            <g id="man" transform="translate(620.000000, 420.000000)">
                <g id="Capa_1">
                    <path d="M32.32,138.460377 C30.9192453,139.224151 29.6603774,140.163019 28.4890566,141.186415 C42.4060377,152.920755 60.3713208,160 80,160 C99.4837736,160 117.33434,153.026415 131.212075,141.452075 C129.932075,140.371321 128.543396,139.399245 127.003774,138.632453 L101.443019,125.853585 C98.1403774,124.202264 96.0543396,120.82717 96.0543396,117.135094 L96.0543396,107.106415 C96.7728302,106.288302 97.5939623,105.237736 98.4724528,103.996981 C101.956226,99.0762264 104.591698,93.6633962 106.418113,87.9849057 C109.696604,86.9735849 112.111698,83.9456604 112.111698,80.3471698 L112.111698,69.6422642 C112.111698,67.2875472 111.064151,65.1833962 109.436981,63.7101887 L109.436981,48.2354717 C109.436981,48.2354717 112.615849,24.1539623 80.0030189,24.1539623 C47.3901887,24.1539623 50.5690566,48.2354717 50.5690566,48.2354717 L50.5690566,63.7101887 C48.9388679,65.1833962 47.8943396,67.2875472 47.8943396,69.6422642 L47.8943396,80.3471698 C47.8943396,83.1667925 49.3766038,85.6483019 51.5954717,87.0822642 C54.2701887,98.7260377 61.2739623,107.106415 61.2739623,107.106415 L61.2739623,116.887547 C61.2709434,120.449811 59.3207547,123.731321 56.1901887,125.44 L32.32,138.460377 Z" id="Shape" fill="#FFFFFF"></path>
                    <path d="M81.3675472,0.0120754717 C37.1924528,-0.742641509 0.766792453,34.4573585 0.0120754717,78.6324528 C-0.416603774,103.68 10.7471698,126.191698 28.5222642,141.162264 C29.6845283,140.147925 30.9313208,139.218113 32.3169811,138.463396 L56.1871698,125.443019 C59.3177358,123.73434 61.2679245,120.45283 61.2679245,116.884528 L61.2679245,107.103396 C61.2679245,107.103396 54.2611321,98.7230189 51.589434,87.0792453 C49.3735849,85.645283 47.8883019,83.1667925 47.8883019,80.3441509 L47.8883019,69.6392453 C47.8883019,67.2845283 48.9358491,65.1803774 50.5630189,63.7071698 L50.5630189,48.2324528 C50.5630189,48.2324528 47.3841509,24.1509434 79.9969811,24.1509434 C112.609811,24.1509434 109.430943,48.2324528 109.430943,48.2324528 L109.430943,63.7071698 C111.061132,65.1803774 112.10566,67.2845283 112.10566,69.6392453 L112.10566,80.3441509 C112.10566,83.9426415 109.690566,86.970566 106.412075,87.9818868 C104.58566,93.6603774 101.950189,99.0732075 98.4664151,103.993962 C97.5879245,105.234717 96.7667925,106.285283 96.0483019,107.103396 L96.0483019,117.132075 C96.0483019,120.824151 98.1343396,124.202264 101.436981,125.850566 L126.997736,138.629434 C128.531321,139.396226 129.916981,140.365283 131.193962,141.443019 C148.431698,127.06717 159.568302,105.57283 159.981887,81.3675472 C160.742642,37.1924528 125.54566,0.766792453 81.3675472,0.0120754717 L81.3675472,0.0120754717 Z" id="Shape" fill="#9B9B9B"></path>
                </g>
            </g>
        </g>
    </g>
</svg>