<?xml version="1.0" encoding="UTF-8" standalone="no"?>
<svg width="160px" height="160px" viewBox="0 0 160 160" version="1.1" xmlns="http://www.w3.org/2000/svg" xmlns:xlink="http://www.w3.org/1999/xlink">
    <!-- Generator: Sketch 3.8.3 (29802) - http://www.bohemiancoding.com/sketch -->
    <title>women</title>
    <desc>Created with Sketch.</desc>
    <defs></defs>
    <g id="Page-1" stroke="none" stroke-width="1" fill="none" fill-rule="evenodd">
        <g id="iPad-Landscape" transform="translate(-620.000000, -620.000000)">
            <g id="women" transform="translate(620.000000, 620.000000)">
                <g id="Capa_1">
                    <path d="M62.1886792,122.967547 C63.68,122.221887 64.8935849,119.81283 65.7479245,118.095094 C66.5177358,116.543396 65.3675472,114.716981 63.634717,114.716981 L44.1781132,114.716981 C44.1781132,114.716981 37.1441509,114.028679 31.7192453,111.698113 C28.5403774,110.333585 27.4475472,108.531321 29.4339623,105.702642 C35.245283,97.4309434 47.2573585,77.9532075 47.6467925,57.8384906 C47.6467925,57.8384906 48.3139623,26.8739623 78.8618868,26.6233962 C96.6822642,26.7713208 105.098868,37.2588679 109.020377,45.9743396 C111.206038,50.8377358 112.144906,56.1388679 112.495094,61.4581132 C113.763019,80.6309434 123.526038,98.1675472 128.075472,105.660377 C129.618113,108.202264 128.872453,111.586415 126.321509,113.113962 C122.137358,115.616604 117.01434,114.716981 117.01434,114.716981 L97.4279245,114.716981 C95.5139623,114.716981 94.6686792,117.391698 96.1720755,118.578113 C97.3977358,119.544151 98.5660377,120.416604 99.1969811,120.760755 L122.08,134.608302 C125.382642,136.410566 128.018113,139.085283 129.811321,142.243019 C116.078491,153.343396 98.6083019,160 79.5743396,160 C59.7283019,160 41.5818868,152.757736 27.6015094,140.790943 C29.4279245,138.300377 31.8098113,136.199245 34.6777358,134.765283 L62.1886792,122.967547 Z" id="Shape" fill="#FFFFFF"></path>
                    <path d="M80,0 C35.8158491,0 0,35.8188679 0,80 C0,104.217358 10.7773585,125.904906 27.7796226,140.576604 C29.5849057,138.182642 31.8973585,136.156981 34.6807547,134.765283 L62.1916981,122.967547 C63.6830189,122.221887 64.8966038,119.81283 65.7509434,118.095094 C66.5207547,116.543396 65.370566,114.716981 63.6377358,114.716981 L44.1811321,114.716981 C44.1811321,114.716981 37.1471698,114.028679 31.7222642,111.698113 C28.5433962,110.333585 27.450566,108.531321 29.4369811,105.702642 C35.2483019,97.4309434 47.2603774,77.9532075 47.6498113,57.8384906 C47.6498113,57.8384906 48.3169811,26.8739623 78.8649057,26.6233962 C96.685283,26.7713208 105.101887,37.2588679 109.023396,45.9743396 C111.209057,50.8377358 112.147925,56.1388679 112.498113,61.4581132 C113.766038,80.6309434 123.529057,98.1675472 128.078491,105.660377 C129.621132,108.202264 128.875472,111.586415 126.324528,113.113962 C122.137358,115.616604 117.01434,114.716981 117.01434,114.716981 L97.4279245,114.716981 C95.5139623,114.716981 94.6686792,117.391698 96.1720755,118.578113 C97.3977358,119.544151 98.5660377,120.416604 99.1969811,120.760755 L122.08,134.608302 C125.358491,136.395472 127.97283,139.043019 129.763019,142.170566 C129.841509,142.246038 129.929057,142.315472 130.004528,142.396981 C148.277736,127.737358 160,105.249811 160,80 C160,35.8188679 124.184151,0 80,0 L80,0 Z" id="Shape" fill="#9B9B9B"></path>
                </g>
            </g>
        </g>
    </g>
</svg>